<svg xmlns="http://www.w3.org/2000/svg" viewBox="0 -960 960 960" width="512" height="512" fill="#4edea3">
  <rect width="960" height="960" y="-960" rx="200" fill="#131315"/>
  <path d="M480-160q-75 0-140.5-28.5t-114-77q-48.5-48.5-77-114T120-520h80q0 117 81.5 198.5T480-240q117 0 198.5-81.5T760-520q0-117-81.5-198.5T480-800h-6l62 62-56 56-160-160 160-160 56 56-62 62h6q75 0 140.5 28.5t114 77q48.5 48.5 77 114T840-520q0 75-28.5 140.5t-77 114q-48.5 48.5-114 77T480-160Zm-40-120v-240h200v80H520v160h-80Z" transform="translate(0, 40)"/>
</svg>
